<?xml version="1.0" encoding="UTF-8"?>
<svg width="1028px" height="1024px" viewBox="0 0 1028 1024" version="1.1" xmlns="http://www.w3.org/2000/svg" xmlns:xlink="http://www.w3.org/1999/xlink">
    <!-- Generator: Sketch 41.1 (35376) - http://www.bohemiancoding.com/sketch -->
    <title>atom-icon</title>
    <desc>Created with Sketch.</desc>
    <defs></defs>
    <g id="User-Sign-In" stroke="none" stroke-width="1" fill="none" fill-rule="evenodd" opacity="0.23658288">
        <g id="UserSignInMain_Desktop_1A_A" transform="translate(-188.000000, 0.000000)" fill="#DEDFE1">
            <g id="Body" transform="translate(188.000000, -2.000000)">
                <g id="bg">
                    <path d="M843.356105,605.295972 C770.205821,699.095621 693.721198,774.176368 605.181654,843.154241 C678.537128,885.515373 850.640355,962.288514 906.400775,906.542084 C944.463545,868.488864 926.971086,749.457161 843.356105,605.295972 M514.077233,783.920454 C615.954136,709.403839 709.213053,616.168321 783.697073,514.316979 C709.520838,412.82463 616.313219,319.486543 514.077233,244.713504 C411.482165,319.691682 318.428437,413.132338 244.406096,514.316979 C318.890115,616.219605 412.20033,709.403839 514.077233,783.920454 M422.921515,843.154241 C334.17678,773.97123 257.692157,698.890483 184.747063,605.295972 C101.132082,749.457161 83.6396233,868.488864 121.702394,906.542084 C176.949838,961.724382 347.565437,886.746204 422.921515,843.154241 M184.747063,423.337986 C257.84605,329.538337 334.330673,254.508875 422.921515,185.479718 C349.668636,143.118586 177.514111,66.2941602 121.702394,122.091874 C83.6396233,160.145094 101.132082,279.176798 184.747063,423.337986 M605.181654,185.479718 C693.926388,254.611444 770.359714,329.692191 843.356105,423.337986 C1028.95058,103.270402 888.60053,21.676503 605.181654,185.479718 M907.939701,514.316979 C1187.25477,950.749464 947.182314,1185.53065 514.077233,908.439617 C81.9981022,1184.86395 -160.074962,952.185435 120.214765,514.316979 C-157.2023,80.9102892 76.7144562,-159.614782 514.077233,120.194341 C947.028422,-156.794125 1187.51126,77.5255014 907.939701,514.316979 M568.760404,459.801382 C598.769462,489.854195 598.769462,538.574625 568.760404,568.576153 C538.700049,598.628966 489.967392,598.628966 459.907037,568.576153 C429.846682,538.574625 429.846682,489.854195 459.907037,459.801382 C489.967392,429.748569 538.700049,429.748569 568.760404,459.801382" id="atom-icon"></path>
                </g>
            </g>
        </g>
    </g>
</svg>